<svg xmlns="http://www.w3.org/2000/svg" width='55' height='55' viewBox="0 0 512 512"><linearGradient id="A" gradientUnits="userSpaceOnUse" x1="0" y1="195.692" x2="511.989" y2="195.692"><stop offset="0" stop-color="#fff9df"/><stop offset=".593" stop-color="#ffe177"/><stop offset="1" stop-color="#feb137"/></linearGradient><path fill="url(#A)" d="M394.9 113.7c45.2 0 81.9 36.8 81.9 81.9s-36.8 81.9-81.9 81.9H117.1c-45.2 0-81.9-36.8-81.9-81.9s36.8-81.9 81.9-81.9h277.8zm0-35.1H117.1C52.4 78.6 0 131 0 195.7s52.4 117.1 117.1 117.1h277.8c64.7 0 117.1-52.4 117.1-117.1S459.6 78.6 394.9 78.6z"/><linearGradient id="B" gradientUnits="userSpaceOnUse" x1="27.105" y1="276.42" x2="101.394" y2="276.42"><stop offset="0" stop-color="#fff9df"/><stop offset="1" stop-color="#ffd15b"/></linearGradient><path fill="url(#B)" d="M86.2 271.6c-15.1-6.2-28-16.7-37-30.1.2 19.5 3.6 38.2 9.6 55.7 12 6.9 25.4 11.8 39.7 14a168.93 168.93 0 0 1-12.3-39.6h0z"/><linearGradient id="C" gradientUnits="userSpaceOnUse" x1="27.105" y1="116.72" x2="101.394" y2="116.72"><stop offset="0" stop-color="#fff9df"/><stop offset="1" stop-color="#ffd15b"/></linearGradient><path fill="url(#C)" d="M83.3 121V83.5C71 87.3 59.5 93 49.2 100.3v49.6c8.4-12.5 20.3-22.6 34.1-28.9z"/><linearGradient id="D" gradientUnits="userSpaceOnUse" x1="418.961" y1="277.138" x2="461.124" y2="277.138"><stop offset="0" stop-color="#feb137"/><stop offset="1" stop-color="#eca026"/></linearGradient><path fill="url(#D)" d="M425.8 271.6c-2.5 13.9-6.7 27.2-12.3 39.7 13.8-2.2 26.7-6.8 38.5-13.3 6.1-17.3 9.5-35.7 9.8-55-9 12.6-21.5 22.6-36 28.6h0z"/><linearGradient id="E" gradientUnits="userSpaceOnUse" x1="418.961" y1="116.012" x2="461.124" y2="116.012"><stop offset="0" stop-color="#feb137"/><stop offset="1" stop-color="#eca026"/></linearGradient><path fill="url(#E)" d="M428.7 83.5V121c13.3 6.1 24.8 15.6 33.1 27.4V99.6c-10-7-21.2-12.4-33.1-16.1z"/><linearGradient id="F" gradientUnits="userSpaceOnUse" x1="100.99" y1="458.793" x2="439.794" y2="458.793"><stop offset="0" stop-color="#fff9df"/><stop offset=".593" stop-color="#ffe177"/><stop offset="1" stop-color="#feb137"/></linearGradient><path fill="url(#F)" d="M375.8 451.8h-23.5c-25.5 0-46.2-20.7-46.2-46.2H205.8c0 25.5-20.7 46.2-46.2 46.2h-23.5c-16.4 0-30.3 12.9-30.7 29.3-.5 17 13.2 31 30.1 31h240.9c16.9 0 30.6-13.9 30.1-31-.4-16.5-14.2-29.3-30.7-29.3z"/><linearGradient id="G" gradientUnits="userSpaceOnUse" x1="230.897" y1="420.552" x2="302.708" y2="420.552"><stop offset="0" stop-color="#ffe177"/><stop offset="1" stop-color="#feb137"/></linearGradient><path fill="url(#G)" d="M205.8 405.6c0 7.6-1.8 14.7-5.1 21 17.4 5.8 36 8.9 55.3 8.9s37.9-3.1 55.3-8.9c-3.2-6.3-5.1-13.5-5.1-21H205.8z"/><linearGradient id="H" gradientUnits="userSpaceOnUse" x1="81.415" y1="214.648" x2="426.566" y2="214.648"><stop offset="0" stop-color="#fff9df"/><stop offset=".593" stop-color="#ffe177"/><stop offset="1" stop-color="#feb137"/></linearGradient><path fill="url(#H)" d="M256 415.4c-97 0-175.7-78.7-175.7-175.7V13.9h351.4v225.9c0 97-78.7 175.6-175.7 175.6z"/><linearGradient id="I" gradientUnits="userSpaceOnUse" x1="226.973" y1="214.645" x2="410.22" y2="214.645"><stop offset="0" stop-color="#ffe177"/><stop offset="1" stop-color="#feb137"/></linearGradient><path fill="url(#I)" d="M431.7 13.9v225.9c0 97-78.7 175.7-175.7 175.7-6.8 0-13.5-.4-20.1-1.1 87.6-10 155.6-84.3 155.6-174.6V85.3H80.3V13.9h351.4z"/><linearGradient id="J" gradientUnits="userSpaceOnUse" x1="49.323" y1="30.128" x2="501.06" y2="30.128"><stop offset="0" stop-color="#fff9df"/><stop offset=".593" stop-color="#ffe177"/><stop offset="1" stop-color="#feb137"/></linearGradient><path fill="url(#J)" d="M426.7 60.2H85.3c-16.6 0-30.1-13.5-30.1-30.1S68.7 0 85.3 0h341.3c16.6 0 30.1 13.5 30.1 30.1s-13.4 30.1-30 30.1z"/><linearGradient id="K" gradientUnits="userSpaceOnUse" x1="134.523" y1="229.707" x2="311.494" y2="229.707"><stop offset="0" stop-color="#fe99a0"/><stop offset=".593" stop-color="#fe646f"/><stop offset="1" stop-color="#e41f2d"/></linearGradient><path fill="url(#K)" d="M278.5 147l17.4 35.3 38.9 5.7c20.6 3 28.8 28.3 13.9 42.8l-28.2 27.5 6.7 38.8c3.5 20.5-18 36.1-36.4 26.5L256 305.2l-34.8 18.3c-18.4 9.7-39.9-6-36.4-26.5l6.7-38.8-28.2-27.5c-14.9-14.5-6.7-39.8 13.9-42.8l38.9-5.7 17.4-35.3c9.2-18.6 35.8-18.6 45 .1h0z"/><linearGradient id="L" gradientUnits="userSpaceOnUse" x1="217.846" y1="255.458" x2="352.369" y2="255.458"><stop offset="0" stop-color="#fe646f"/><stop offset=".704" stop-color="#e41f2d"/><stop offset="1" stop-color="#c41926"/></linearGradient><path fill="url(#L)" d="M334.9 187.9l-23.7-3.4c0 55.4-44.9 100.4-100.4 100.4-8.1 0-16-1-23.5-2.8l-2.6 14.9c-3.5 20.5 18 36.1 36.4 26.5l34.8-18.3 34.8 18.3c18.4 9.7 39.9-6 36.4-26.5l-6.7-38.8 28.2-27.5c15.1-14.5 6.9-39.8-13.7-42.8h0z"/></svg>