<svg xmlns="http://www.w3.org/2000/svg" width='35px' height='42' viewBox="49.5 0 413.1 512"  xmlns:v="https://vecta.io/nano"><linearGradient id="A" gradientUnits="userSpaceOnUse" x1="81.433" y1="240.888" x2="494.096" y2="240.888"><stop offset="0" stop-color="#f9f3f1"/><stop offset=".573" stop-color="#efe2dd"/><stop offset="1" stop-color="#cdbfba"/></linearGradient><path fill="url(#A)" d="M346 0H132.7c-14.6 0-26.5 11.9-26.5 26.5v428.9c0 14.6 11.9 26.5 26.5 26.5h303.4c14.6 0 26.5-11.9 26.5-26.5V116.5L346 0z"/><linearGradient id="B" gradientUnits="userSpaceOnUse" x1="149.382" y1="240.888" x2="397.141" y2="240.888"><stop offset="0" stop-color="#f9f3f1"/><stop offset=".573" stop-color="#efe2dd"/><stop offset="1" stop-color="#cdbfba"/></linearGradient><path fill="url(#B)" d="M436.1 481.9h-40.2c14.6 0 26.5-11.9 26.5-26.5V168.8c0-14.9-12.1-27.1-27.1-27.1h-51.1a23.26 23.26 0 0 1-23.3-23.3V0H346l116.5 116.5v338.9c0 14.6-11.8 26.5-26.4 26.5h0z"/><linearGradient id="C" gradientUnits="userSpaceOnUse" x1="316.334" y1="58.206" x2="487.152" y2="58.206"><stop offset="0" stop-color="#f9f3f1"/><stop offset=".573" stop-color="#efe2dd"/><stop offset="1" stop-color="#cdbfba"/></linearGradient><path fill="url(#C)" d="M346 0v93.2a23.26 23.26 0 0 0 23.3 23.3h93.2C462.5 52.2 410.4 0 346 0h0z"/><linearGradient id="D" gradientUnits="userSpaceOnUse" x1=".258" y1="350.024" x2="262.66" y2="350.024"><stop offset="0" stop-color="#f9f3f1"/><stop offset=".573" stop-color="#efe2dd"/><stop offset="1" stop-color="#cdbfba"/></linearGradient><path fill="url(#D)" d="M250.9 384.2c15.2-17.6 24.4-40.5 24.4-65.6 0-55.4-44.9-100.4-100.4-100.4-26.6 0-50.8 10.4-68.8 27.3v210c0 14.6 11.9 26.5 26.5 26.5h10.9l12.2-12.2c9.1-9.1 23.9-9.1 33 0l12.2 12.2h50v-97.8z"/><linearGradient id="E" gradientUnits="userSpaceOnUse" x1="126.749" y1="442.05" x2="197.373" y2="442.05"><stop offset="0" stop-color="#f9f3f1"/><stop offset=".573" stop-color="#efe2dd"/><stop offset="1" stop-color="#cdbfba"/></linearGradient><path fill="url(#E)" d="M163.6 469.7l38.2 38.2c8.9 8.9 24.1 2.6 24.1-10V372.1h-152v120.3c0 12.6 15.2 18.8 24.1 10l32.7-32.7c9-9.1 23.8-9.1 32.9 0h0z"/><linearGradient id="F" gradientUnits="userSpaceOnUse" x1="38.406" y1="442.048" x2="180.231" y2="442.048"><stop offset="0" stop-color="#f9f3f1"/><stop offset=".573" stop-color="#efe2dd"/><stop offset="1" stop-color="#cdbfba"/></linearGradient><path fill="url(#F)" d="M225.8 372.1v125.8c0 12.5-15.2 18.8-24.1 10l-16.1-16.1v-54.3c-11.1 4.3-23.2 6.6-35.8 6.6-30.3 0-57.6-13.5-76-34.8v-37.2h152z"/><linearGradient id="G" gradientUnits="userSpaceOnUse" x1="56.476" y1="439.312" x2="128.013" y2="439.312"><stop offset="0" stop-color="#fe646f"/><stop offset=".573" stop-color="#fb2b3a"/><stop offset="1" stop-color="#c41926"/></linearGradient><path fill="url(#G)" d="M73.9,372.1H120v108.2l-22.1,22.1c-8.9,8.9-24,2.6-24-10V372.1z"/><linearGradient id="H" gradientUnits="userSpaceOnUse" x1="39.744" y1="405.816" x2="119.353" y2="405.816"><stop offset="0" stop-color="#fe646f"/><stop offset=".573" stop-color="#fb2b3a"/><stop offset="1" stop-color="#c41926"/></linearGradient><path fill="url(#H)" d="M120 439.5v-67.4H73.9v37.2c12.1 14 28 24.6 46.1 30.2z"/><linearGradient id="I" gradientUnits="userSpaceOnUse" x1="152.181" y1="442.048" x2="241.953" y2="442.048"><stop offset="0" stop-color="#6bd9e7"/><stop offset=".573" stop-color="#26a6fe"/><stop offset="1" stop-color="#0172fb"/></linearGradient><path fill="url(#I)" d="M225.8 372.1v125.8c0 12.5-15.2 18.8-24.1 10l-22.1-22.1V372.1h46.2z"/><linearGradient id="J" gradientUnits="userSpaceOnUse" x1="111.691" y1="442.048" x2="217.22" y2="442.048"><stop offset="0" stop-color="#6bd9e7"/><stop offset=".573" stop-color="#26a6fe"/><stop offset="1" stop-color="#0172fb"/></linearGradient><path fill="url(#J)" d="M185.6 437.5v54.3l16.1 16.1c8.9 8.9 24.1 2.6 24.1-10V372.1h-46.1v67.4c2-.6 4-1.3 5.9-2h0z"/><linearGradient id="K" gradientUnits="userSpaceOnUse" x1="49.119" y1="318.545" x2="295.428" y2="318.545"><stop offset="0" stop-color="#ffe177"/><stop offset=".573" stop-color="#feb137"/><stop offset="1" stop-color="#fe646f"/></linearGradient><circle fill="url(#K)" cx="149.8" cy="318.5" r="100.4"/><linearGradient id="L" gradientUnits="userSpaceOnUse" x1="15.322" y1="318.545" x2="254.9" y2="318.545"><stop offset="0" stop-color="#ffe177"/><stop offset=".573" stop-color="#feb137"/><stop offset="1" stop-color="#fe646f"/></linearGradient><path fill="url(#L)" d="M149.8 218.1a102.25 102.25 0 0 0-20.1 2c45.8 9.3 80.3 49.8 80.3 98.4s-34.5 89.1-80.3 98.4a102.25 102.25 0 0 0 20.1 2c55.4 0 100.4-44.9 100.4-100.4s-44.9-100.4-100.4-100.4h0z"/><linearGradient id="M" gradientUnits="userSpaceOnUse" x1="48.445" y1="318.545" x2="224.83" y2="318.545"><stop offset="0" stop-color="#ffe177"/><stop offset=".573" stop-color="#feb137"/><stop offset="1" stop-color="#fe646f"/></linearGradient><circle fill="url(#M)" cx="149.8" cy="318.5" r="60.2"/><linearGradient id="N" gradientUnits="userSpaceOnUse" x1="157.493" y1="164.455" x2="417.992" y2="164.455"><stop offset="0" stop-color="#537983"/><stop offset="1" stop-color="#3e5959"/></linearGradient><path fill="url(#N)" d="M414 182.3H154.7c-3.3 0-5.9-2.6-5.9-5.9v-23.9c0-3.3 2.6-5.9 5.9-5.9H414c3.3 0 5.9 2.6 5.9 5.9v23.9c0 3.3-2.7 5.9-5.9 5.9z"/><linearGradient id="O" gradientUnits="userSpaceOnUse" x1="159.575" y1="87.976" x2="482.875" y2="87.976"><stop offset="0" stop-color="#537983"/><stop offset="1" stop-color="#3e5959"/></linearGradient><path fill="url(#O)" d="M299.9 105.8H154.7c-3.3 0-5.9-2.6-5.9-5.9V76c0-3.3 2.6-5.9 5.9-5.9h145.1c3.3 0 5.9 2.6 5.9 5.9v23.9c.1 3.3-2.6 5.9-5.8 5.9z"/><linearGradient id="P" gradientUnits="userSpaceOnUse" x1="138.629" y1="317.413" x2="417.858" y2="317.413"><stop offset="0" stop-color="#537983"/><stop offset="1" stop-color="#3e5959"/></linearGradient><path fill="url(#P)" d="M414 335.3H290.3c-3.3 0-5.9-2.6-5.9-5.9v-23.9c0-3.3 2.6-5.9 5.9-5.9H414c3.3 0 5.9 2.6 5.9 5.9v23.9c0 3.2-2.7 5.9-5.9 5.9z"/><linearGradient id="Q" gradientUnits="userSpaceOnUse" x1="138.629" y1="240.934" x2="417.858" y2="240.934"><stop offset="0" stop-color="#537983"/><stop offset="1" stop-color="#3e5959"/></linearGradient><path fill="url(#Q)" d="M414 258.8H290.3c-3.3 0-5.9-2.6-5.9-5.9V229c0-3.3 2.6-5.9 5.9-5.9H414c3.3 0 5.9 2.6 5.9 5.9v23.9c0 3.2-2.7 5.9-5.9 5.9z"/><linearGradient id="R" gradientUnits="userSpaceOnUse" x1="138.629" y1="393.892" x2="417.858" y2="393.892"><stop offset="0" stop-color="#537983"/><stop offset="1" stop-color="#3e5959"/></linearGradient><path fill="url(#R)" d="M414 411.7H290.3c-3.3 0-5.9-2.6-5.9-5.9V382c0-3.3 2.6-5.9 5.9-5.9H414c3.3 0 5.9 2.6 5.9 5.9v23.9c0 3.2-2.7 5.8-5.9 5.8z"/></svg>