<svg xmlns="http://www.w3.org/2000/svg" xmlns:xlink="http://www.w3.org/1999/xlink" viewBox="27.3 0 457.4 512" xmlns:v="https://vecta.io/nano"><linearGradient id="A" gradientUnits="userSpaceOnUse" x1="39.36" y1="244.924" x2="416.826" y2="244.924"><stop offset="0" stop-color="#01d0fb"/><stop offset=".608" stop-color="#26a6fe"/><stop offset="1" stop-color="#0182fc"/></linearGradient><path fill="url(#A)" d="M27.3 457.8V32a31.97 31.97 0 0 1 32-32h287.3a31.97 31.97 0 0 1 32 32v325.3c0 73.2-59.3 132.5-132.5 132.5H59.4c-17.7 0-32.1-14.3-32.1-32z"/><linearGradient id="B" gradientUnits="userSpaceOnUse" x1="65.886" y1="267.087" x2="443.352" y2="267.087"><stop offset="0" stop-color="#f2fbff"/><stop offset=".593" stop-color="#faf7f7"/><stop offset="1" stop-color="#f3eae6"/></linearGradient><path fill="url(#B)" d="M53.8 480V54.2a31.97 31.97 0 0 1 32-32h287.3a31.97 31.97 0 0 1 32 32v325.3c0 73.2-59.3 132.5-132.5 132.5H85.9c-17.7 0-32.1-14.3-32.1-32z"/><linearGradient id="C" gradientUnits="userSpaceOnUse" x1="348.986" y1="267.087" x2="455.57" y2="267.087"><stop offset="0" stop-color="#f3eae6"/><stop offset="1" stop-color="#cdbfba"/></linearGradient><path fill="url(#C)" d="M373.2 22.2H333a31.97 31.97 0 0 1 32 32v325.3c0 73.2-59.3 132.5-132.5 132.5h40.2c73.2 0 132.5-59.3 132.5-132.5V54.2a31.97 31.97 0 0 0-32-32z"/><linearGradient id="D" gradientUnits="userSpaceOnUse" x1="259.639" y1="437.712" x2="422.581" y2="437.712"><stop offset="0" stop-color="#f3eae6"/><stop offset="1" stop-color="#cdbfba"/></linearGradient><path fill="url(#D)" d="M405.2,363.4v16.1c0,73.2-59.3,132.5-132.5,132.5h-16.1V395.5c0-17.7,14.4-32.1,32.1-32.1H405.2z"/><linearGradient id="E" gradientUnits="userSpaceOnUse" x1="94.513" y1="235.39" x2="364.228" y2="235.39"><stop offset="0" stop-color="#cdbfba"/><stop offset="1" stop-color="#766e6e"/></linearGradient><use xlink:href="#S" fill="url(#E)"/><linearGradient id="F" gradientUnits="userSpaceOnUse" x1="94.513" y1="235.369" x2="364.228" y2="235.369"><stop offset="0" stop-color="#cdbfba"/><stop offset="1" stop-color="#766e6e"/></linearGradient><use xlink:href="#S" y="76.5" fill="url(#F)"/><linearGradient id="G" gradientUnits="userSpaceOnUse" x1="94.513" y1="388.348" x2="364.228" y2="388.348"><stop offset="0" stop-color="#cdbfba"/><stop offset="1" stop-color="#766e6e"/></linearGradient><path fill="url(#G)" d="M214.5 370.5H99.9c-3.3 0-5.9 2.6-5.9 5.9v23.9c0 3.3 2.6 5.9 5.9 5.9h114.6c3.3 0 5.9-2.6 5.9-5.9v-23.9c0-3.3-2.6-5.9-5.9-5.9z"/><linearGradient id="H" gradientUnits="userSpaceOnUse" x1="94.513" y1="158.91" x2="364.228" y2="158.91"><stop offset="0" stop-color="#cdbfba"/><stop offset="1" stop-color="#766e6e"/></linearGradient><path fill="url(#H)" d="M359.1 141.1H99.9c-3.3 0-5.9 2.6-5.9 5.9v23.9c0 3.3 2.6 5.9 5.9 5.9h259.2c3.3 0 5.9-2.6 5.9-5.9V147c0-3.3-2.6-5.9-5.9-5.9z"/><linearGradient id="I" gradientUnits="userSpaceOnUse" x1="94.513" y1="82.431" x2="364.228" y2="82.431"><stop offset="0" stop-color="#cdbfba"/><stop offset="1" stop-color="#766e6e"/></linearGradient><path fill="url(#I)" d="M359.1 64.6H99.9c-3.3 0-5.9 2.6-5.9 5.9v23.9c0 3.3 2.6 5.9 5.9 5.9h259.2c3.3 0 5.9-2.6 5.9-5.9V70.5c0-3.3-2.6-5.9-5.9-5.9z"/><linearGradient id="J" gradientUnits="userSpaceOnUse" x1="437.96" y1="48.572" x2="469.05" y2="48.572"><stop offset="0" stop-color="#cdbfba"/><stop offset="1" stop-color="#766e6e"/></linearGradient><path fill="url(#J)" d="M471.1 75h-33V31.8c0-5.3 4.3-9.6 9.6-9.6h13.8c5.3 0 9.6 4.3 9.6 9.6V75z"/><linearGradient id="K" gradientUnits="userSpaceOnUse" x1="437.107" y1="472.939" x2="471.611" y2="472.939"><stop offset="0" stop-color="#cdbfba"/><stop offset="1" stop-color="#766e6e"/></linearGradient><path fill="url(#K)" d="M450.2 505.2l-3.9-14.7c-4.3-16-7.4-35.4-9.2-56.5h35.1c-1.8 21.1-4.9 40.6-9.2 56.5l-3.9 14.7c-2.6 9.1-6.5 9.1-8.9 0h0z"/><linearGradient id="L" gradientUnits="userSpaceOnUse" x1="423.559" y1="281.663" x2="491.319" y2="281.663"><stop offset="0" stop-color="#fff9df"/><stop offset=".593" stop-color="#ffe177"/><stop offset="1" stop-color="#feb137"/></linearGradient><path fill="url(#L)" d="M484.7 420.6V94.7c0-16.6-13.5-30.1-30.1-30.1s-30.1 13.5-30.1 30.1v325.9c3.1 21.1 8.5 40.6 15.8 56.5l6.8 14.7c4.2 9.1 10.9 9.1 15.1 0l6.8-14.7c7.2-15.9 12.6-35.3 15.7-56.5z"/><linearGradient id="M" gradientUnits="userSpaceOnUse" x1="443.028" y1="281.663" x2="502.674" y2="281.663"><stop offset="0" stop-color="#ffe177"/><stop offset="1" stop-color="#feb137"/></linearGradient><path fill="url(#M)" d="M484.7 94.7c0-16.6-13.5-30.1-30.1-30.1-4.5 0-8.7 1-12.6 2.7 10.4 4.8 17.6 15.2 17.6 27.4v325.9c-3.1 21.1-8.5 40.6-15.8 56.5L442 481l5 10.9c4.2 9.1 10.9 9.1 15.1 0l6.8-14.7c7.3-16 12.7-35.4 15.8-56.5v-326z"/><linearGradient id="N" gradientUnits="userSpaceOnUse" x1="424.632" y1="459.671" x2="483.801" y2="459.671"><stop offset="0" stop-color="#ffe177"/><stop offset="1" stop-color="#feb137"/></linearGradient><path fill="url(#N)" d="M447 491.9l-6.8-14.7c-7.3-16-12.7-35.4-15.8-56.5h60.2c-3.1 21.1-8.5 40.6-15.8 56.5l-6.8 14.7c-4.1 9.1-10.8 9.1-15 0z"/><linearGradient id="O" gradientUnits="userSpaceOnUse" x1="442.359" y1="459.689" x2="491.507" y2="459.689"><stop offset="0" stop-color="#feb137"/><stop offset="1" stop-color="#eca026"/></linearGradient><path fill="url(#O)" d="M459.6 420.6c-3.1 21.1-8.5 40.6-15.8 56.5L442 481l5 10.9c4.2 9.1 10.9 9.1 15.1 0l6.8-14.7c7.3-16 12.7-35.4 15.8-56.5h-25.1z"/><linearGradient id="P" gradientUnits="userSpaceOnUse" x1="424.288" y1="134.401" x2="480.987" y2="134.401"><stop offset="0" stop-color="#f2fbff"/><stop offset=".593" stop-color="#faf7f7"/><stop offset="1" stop-color="#f3eae6"/></linearGradient><path fill="url(#P)" d="M424.5,120.3h60.2v28.1h-60.2V120.3z"/><linearGradient id="Q" gradientUnits="userSpaceOnUse" x1="459.503" y1="134.401" x2="483.138" y2="134.401"><stop offset="0" stop-color="#f3eae6"/><stop offset="1" stop-color="#cdbfba"/></linearGradient><path fill="url(#Q)" d="M459.6,120.3h25.1v28.1h-25.1V120.3z"/><defs ><path id="S" d="M359.1 217.5H99.9c-3.3 0-5.9 2.6-5.9 5.9v23.9c0 3.3 2.6 5.9 5.9 5.9h259.2c3.3 0 5.9-2.6 5.9-5.9v-23.9c0-3.2-2.6-5.9-5.9-5.9z"/></defs></svg>