<svg xmlns="http://www.w3.org/2000/svg" width='32px' height='43' viewBox="65.1 0 381.9 512"  xmlns:v="https://vecta.io/nano"><linearGradient id="A" gradientUnits="userSpaceOnUse" x1="88.651" y1="452.285" x2="426.704" y2="452.285"><stop offset="0" stop-color="#537983"/><stop offset="1" stop-color="#3e5959"/></linearGradient><path fill="url(#A)" d="M403.9 512H108.1c-15 0-25.5-15-20.2-29.1 6.6-17.5 16-33.3 27.6-46.6 23.6-27.1 56.1-43.8 92.1-43.8h96.9c53.6 0 99.7 37.2 119.6 90.3 5.3 14.2-5.1 29.2-20.2 29.2z"/><linearGradient id="B" gradientUnits="userSpaceOnUse" x1="75.858" y1="452.285" x2="410.174" y2="452.285"><stop offset="0" stop-color="#537983"/><stop offset="1" stop-color="#384949"/></linearGradient><path fill="url(#B)" d="M424.1 482.9c-15.8-42-47.9-74.1-87.2-85.7l-1.2-.3c-10-2.8-20.5-4.4-31.3-4.4h-96.9c-11.2 0-22.1 1.6-32.5 4.7 22.2 17.8 50.3 28.4 81 28.4 15.6 0 30.6-2.8 44.4-7.8 16.9-6.2 35.8-2 48.7 10.7 15 14.7 27 33.3 34.9 54.3 5.3 14.1-5.1 29.1-20.2 29.1H404c15 .1 25.4-14.9 20.1-29h0z"/><linearGradient id="C" gradientUnits="userSpaceOnUse" x1="212.598" y1="435.324" x2="299.409" y2="435.324"><stop offset="0" stop-color="#ffdcbd"/><stop offset=".003" stop-color="#ffdcbd"/><stop offset="1" stop-color="#ffa9b1"/></linearGradient><path fill="url(#C)" d="M286.1 456.6l-20.3 24.1a12.68 12.68 0 0 1-19.5 0L226 456.6c-8.6-10.2-13.3-23.2-13.3-36.5v-34.7h86.8V420c-.1 13.4-4.8 26.4-13.4 36.6z"/><linearGradient id="D" gradientUnits="userSpaceOnUse" x1="212.599" y1="405.534" x2="299.41" y2="405.534"><stop offset="0" stop-color="#ffc2b5"/><stop offset="1" stop-color="#ff89a8"/></linearGradient><path fill="url(#D)" d="M212.6 418.2c13.6 4.8 28.2 7.5 43.4 7.5s29.8-2.6 43.4-7.5v-32.9h-86.8v32.9z"/><linearGradient id="E" gradientUnits="userSpaceOnUse" x1="126.42" y1="252.272" x2="385.587" y2="252.272"><stop offset="0" stop-color="#ffdcbd"/><stop offset=".003" stop-color="#ffdcbd"/><stop offset="1" stop-color="#ffa9b1"/></linearGradient><path fill="url(#E)" d="M256 400.6c-71.6 0-129.6-58-129.6-129.6v-37.5c0-71.6 58-129.6 129.6-129.6s129.6 58 129.6 129.6V271c0 71.6-58 129.6-129.6 129.6h0z"/><linearGradient id="F" gradientUnits="userSpaceOnUse" x1="231.583" y1="252.271" x2="444.285" y2="252.271"><stop offset="0" stop-color="#ffc2b5"/><stop offset="1" stop-color="#ff89a8"/></linearGradient><path fill="url(#F)" d="M377 187.1c-3.4-8.9-7.8-17.3-12.9-25.1-4.8-7.2-10.3-14-16.4-20.1a128.82 128.82 0 0 0-91.6-38C211 103.9 171.2 127 148 162c-5.2 7.8-9.5 16.2-12.9 25.1h164c25.5 0 46.4 20.5 46.5 45.9v38c0 64.7-47.5 118.4-109.5 128 6.5 1 13.3 1.6 20.1 1.6 71.6 0 129.6-58 129.6-129.6v-37.5c-.2-16.3-3.2-32-8.8-46.4z"/><linearGradient id="G" gradientUnits="userSpaceOnUse" x1="97.1" y1="190.166" x2="261.257" y2="190.166"><stop offset="0" stop-color="#ffe177"/><stop offset=".573" stop-color="#feb137"/><stop offset="1" stop-color="#fe646f"/></linearGradient><path fill="url(#G)" d="M259.6 140.7l-7.5 21.5c-9.9 28.4-36.7 47.5-66.7 47.5-18.5 0-36.2 7.3-49.3 20.4l-9.7 9.7a78.84 78.84 0 0 1-.2-83.5l9.6-15.5h123.8z"/><linearGradient id="H" gradientUnits="userSpaceOnUse" x1="60.302" y1="171.94" x2="247.975" y2="171.94"><stop offset="0" stop-color="#ffe177"/><stop offset=".573" stop-color="#feb137"/><stop offset="1" stop-color="#fe646f"/></linearGradient><path fill="url(#H)" d="M259.6 140.7l-7.4 21.3v.1c-3.3 9.5-8.5 17.9-15.1 25-6.3 6.8-13.9 12.3-22.3 16.1-6.4-2.9-12.3-6.8-17.5-11.4a18.75 18.75 0 0 0-12.4-4.7h-69.6c1.2-8.6 3.8-17.1 7.8-25.1 1-2 2.1-4 3.3-5.9l9.6-15.5h123.6z"/><linearGradient id="I" gradientUnits="userSpaceOnUse" x1="178.555" y1="190.166" x2="417.227" y2="190.166"><stop offset="0" stop-color="#ffe177"/><stop offset=".573" stop-color="#feb137"/><stop offset="1" stop-color="#fe646f"/></linearGradient><path fill="url(#I)" d="M200.2 140.7l7.5 21.5c9.9 28.4 36.7 47.5 66.7 47.5h52.2c18.5 0 36.2 7.3 49.3 20.4l9.7 9.7a78.84 78.84 0 0 0 .2-83.5l-9.6-15.5h-176z"/><linearGradient id="J" gradientUnits="userSpaceOnUse" x1="101.952" y1="190.165" x2="391.588" y2="190.165"><stop offset="0" stop-color="#ffe177"/><stop offset=".573" stop-color="#feb137"/><stop offset="1" stop-color="#fe646f"/></linearGradient><path fill="url(#J)" d="M397.6 197.7c0 14.5-4 29.1-12 41.9v.1l-9.7-9.7c-10-10-22.7-16.6-36.3-19.2-8-14.2-23.2-23.7-40.6-23.7h-76.2c-6.6-7-11.8-15.5-15.1-25l-7.5-21.5h176l9.6 15.5a79.05 79.05 0 0 1 11.8 41.6h0z"/><linearGradient id="K" gradientUnits="userSpaceOnUse" x1="145.608" y1="269.451" x2="230.92" y2="269.451"><stop offset="0" stop-color="#bfbfbf"/><stop offset=".758" stop-color="#5a5a5a"/><stop offset="1" stop-color="#444"/></linearGradient><path fill="url(#K)" d="M199.4 286.6c-14.8 0-26.8-12-26.8-26.8 0-4.2 3.4-7.5 7.5-7.5 4.2 0 7.5 3.4 7.5 7.5 0 6.5 5.3 11.8 11.8 11.8s11.8-5.3 11.8-11.8c0-4.2 3.4-7.5 7.5-7.5 4.2 0 7.5 3.4 7.5 7.5.1 14.8-12 26.8-26.8 26.8z"/><linearGradient id="L" gradientUnits="userSpaceOnUse" x1="259.684" y1="269.451" x2="342.381" y2="269.451"><stop offset="0" stop-color="#bfbfbf"/><stop offset=".758" stop-color="#5a5a5a"/><stop offset="1" stop-color="#444"/></linearGradient><path fill="url(#L)" d="M312.6 286.6c-14.8 0-26.8-12-26.8-26.8 0-4.2 3.4-7.5 7.5-7.5 4.2 0 7.5 3.4 7.5 7.5 0 6.5 5.3 11.8 11.8 11.8s11.8-5.3 11.8-11.8c0-4.2 3.4-7.5 7.5-7.5 4.2 0 7.5 3.4 7.5 7.5 0 14.8-12 26.8-26.8 26.8z"/><linearGradient id="M" gradientUnits="userSpaceOnUse" x1="196.792" y1="349.914" x2="270.537" y2="349.914"><stop offset="0" stop-color="#ffc2b5"/><stop offset=".244" stop-color="#ffbbb3"/><stop offset=".61" stop-color="#ffa6af"/><stop offset="1" stop-color="#ff89a8"/></linearGradient><path fill="url(#M)" d="M256 367.1c-16.6 0-32.7-7.8-45.3-21.9-2.8-3.1-2.5-7.9.6-10.6 3.1-2.8 7.9-2.5 10.6.6 9.8 11 21.6 16.8 34.1 16.8 12.4 0 24.2-5.8 34.1-16.8 2.8-3.1 7.5-3.4 10.6-.6s3.4 7.5.6 10.6c-12.6 14.2-28.7 21.9-45.3 21.9h0z"/><linearGradient id="N" gradientUnits="userSpaceOnUse" x1="135.681" y1="100.452" x2="380.785" y2="100.452"><stop offset="0" stop-color="#537983"/><stop offset="1" stop-color="#3e5959"/></linearGradient><path fill="url(#N)" d="M372.9 38.9H139.1c-7 0-12.7 5.7-12.7 12.7v97.8c0 7 5.7 12.7 12.7 12.7H373c7 0 12.7-5.7 12.7-12.7V51.6c-.1-7-5.8-12.7-12.8-12.7z"/><linearGradient id="O" gradientUnits="userSpaceOnUse" x1="77.364" y1="100.454" x2="452.071" y2="100.454"><stop offset="0" stop-color="#537983"/><stop offset="1" stop-color="#384949"/></linearGradient><path fill="url(#O)" d="M385.6 51.6v97.8c0 7-5.7 12.7-12.7 12.7h-40.2c7 0 12.7-5.7 12.7-12.7v-43.3c0-15.8-12.8-28.6-28.6-28.6H126.4V51.6c0-7 5.7-12.7 12.7-12.7H373c6.9 0 12.6 5.7 12.6 12.7z"/><linearGradient id="P" gradientUnits="userSpaceOnUse" x1="71.7" y1="62.652" x2="140.039" y2="62.652"><stop offset="0" stop-color="#ffe177"/><stop offset=".573" stop-color="#feb137"/><stop offset="1" stop-color="#fe646f"/></linearGradient><path fill="url(#P)" d="M107.8 29.7v66c0 6.9-5.6 12.5-12.5 12.5s-12.5-5.6-12.5-12.5v-66c0-6.9 5.6-12.5 12.5-12.5 6.9-.1 12.5 5.5 12.5 12.5z"/><linearGradient id="Q" gradientUnits="userSpaceOnUse" x1="66.329" y1="118.175" x2="126.36" y2="118.175"><stop offset="0" stop-color="#ffe177"/><stop offset=".573" stop-color="#feb137"/><stop offset="1" stop-color="#fe646f"/></linearGradient><path fill="url(#Q)" d="M77.7 97.8c5.4-5.4 12.9-8 20.6-7.1 4.4.5 8.7 2.2 12.2 5 12.1 9.4 12.9 26.9 2.4 37.4l-9.4 9.4c-4.5 4.5-11.9 4.5-16.5 0l-9.4-9.4c-9.7-9.8-9.7-25.6.1-35.3z"/><linearGradient id="R" gradientUnits="userSpaceOnUse" x1="36.425" y1="119.38" x2="129.972" y2="119.38"><stop offset="0" stop-color="#ffe177"/><stop offset=".573" stop-color="#feb137"/><stop offset="1" stop-color="#fe646f"/></linearGradient><path fill="url(#R)" d="M110.5 95.6a20.67 20.67 0 0 0-4.5-2.7c1.2 3.1 1.8 6.5 1.8 10a28.17 28.17 0 0 1-28.2 28.2c-1.3 0-2.6-.1-3.9-.3.6.8 1.2 1.5 1.9 2.2l9.4 9.4c4.5 4.5 11.9 4.5 16.5 0l9.4-9.4c10.5-10.4 9.7-28-2.4-37.4z"/><linearGradient id="S" gradientUnits="userSpaceOnUse" x1="89.656" y1="26.178" x2="424.492" y2="26.178"><stop offset="0" stop-color="#537983"/><stop offset="1" stop-color="#3e5959"/></linearGradient><path fill="url(#S)" d="M420.7 52.4H91.3c-14.5 0-26.2-11.7-26.2-26.2S76.8 0 91.3 0h329.5C435.3 0 447 11.7 447 26.2s-11.8 26.2-26.3 26.2z"/><linearGradient id="T" gradientUnits="userSpaceOnUse" x1="239.679" y1="26.178" x2="445.713" y2="26.178"><stop offset="0" stop-color="#537983"/><stop offset="1" stop-color="#384949"/></linearGradient><path fill="url(#T)" d="M420.7 0h-40.2c14.5 0 26.2 11.7 26.2 26.2S395 52.4 380.6 52.4h40.2c14.5 0 26.2-11.7 26.2-26.2S435.2 0 420.7 0z"/></svg>