<svg xmlns="http://www.w3.org/2000/svg" viewBox="12.2 0 487.6 512"  xmlns:v="https://vecta.io/nano"><linearGradient id="A" gradientUnits="userSpaceOnUse" x1="173.469" y1="81.404" x2="294.536" y2="81.404"><stop offset="0" stop-color="#ffdcbd"/><stop offset=".003" stop-color="#ffdcbd"/><stop offset="1" stop-color="#ffa9b1"/></linearGradient><path fill="url(#A)" d="M229.8 0c-13.8 0-25 11.2-25 25v75.5c0 24.5-11.6 47.6-31.3 62.3h128.9V72.5c-.1-40-32.6-72.5-72.6-72.5z"/><linearGradient id="B" gradientUnits="userSpaceOnUse" x1="114.439" y1="329.147" x2="474.961" y2="329.147"><stop offset="0" stop-color="#ffdcbd"/><stop offset=".003" stop-color="#ffdcbd"/><stop offset="1" stop-color="#ffa9b1"/></linearGradient><path fill="url(#B)" d="M499.8 192.9c0-25.8-20.9-46.6-46.6-46.6H214.5c-15.3 0-29.9 6-41 16.5-23 21.8-54 35.3-88 35.7h0v261.2c34.1.4 65 13.9 88 35.7 11.1 10.5 25.7 16.5 41 16.5h238.7c25.8 0 46.6-20.9 46.6-46.6 0-11-3.8-21.2-10.3-29.2-7.7-9.6-7.7-22.9 0-32.5 6.4-8 10.3-18.1 10.3-29.2 0-11-3.8-21.2-10.3-29.2-7.7-9.6-7.7-22.9 0-32.5 6.4-8 10.3-18.1 10.3-29.2 0-11-3.8-21.2-10.3-29.2-7.7-9.6-7.7-22.9 0-32.5 6.5-7.7 10.3-17.8 10.3-28.9h0z"/><linearGradient id="C" gradientUnits="userSpaceOnUse" x1="363.807" y1="329.145" x2="506.725" y2="329.145"><stop offset="0" stop-color="#ffc2b5"/><stop offset="1" stop-color="#ff89a8"/></linearGradient><path fill="url(#C)" d="M499.8 192.9c0-25.8-20.9-46.6-46.6-46.6h-52.5c25.8 0 46.6 20.9 46.6 46.6 0 11-3.8 21.2-10.3 29.2-7.7 9.6-7.7 22.9 0 32.5 6.4 8 10.3 18.1 10.3 29.2 0 11-3.8 21.2-10.3 29.2-7.7 9.6-7.7 22.9 0 32.5 6.4 8 10.3 18.1 10.3 29.2 0 11-3.8 21.2-10.3 29.2-7.7 9.6-7.7 22.9 0 32.5 6.4 8 10.3 18.1 10.3 29.2 0 25.8-20.9 46.6-46.6 46.6h52.5c25.8 0 46.6-20.9 46.6-46.6 0-11-3.8-21.2-10.3-29.2-7.7-9.6-7.7-22.9 0-32.5 6.4-8 10.3-18.1 10.3-29.2 0-11-3.8-21.2-10.3-29.2-7.7-9.6-7.7-22.9 0-32.5 6.4-8 10.3-18.1 10.3-29.2s-3.8-21.2-10.3-29.2c-7.7-9.6-7.7-22.9 0-32.5 6.5-8 10.3-18.1 10.3-29.2z"/><linearGradient id="D" gradientUnits="userSpaceOnUse" x1="52.957" y1="329.147" x2="120.02" y2="329.147"><stop offset="0" stop-color="#f2fbff"/><stop offset=".593" stop-color="#faf7f7"/><stop offset="1" stop-color="#f3eae6"/></linearGradient><path fill="url(#D)" d="M67,492.1v-326h23.8c20.5,0,37.1,16.6,37.1,37.1V455c0,20.5-16.6,37.1-37.1,37.1H67z"/><linearGradient id="E" gradientUnits="userSpaceOnUse" x1="-3.118" y1="329.147" x2="87.123" y2="329.147"><stop offset="0" stop-color="#01d0fb"/><stop offset=".608" stop-color="#26a6fe"/><stop offset="1" stop-color="#0182fc"/></linearGradient><path fill="url(#E)" d="M12.2 488.2v-318c0-13.2 10.7-23.8 23.8-23.8 20.5 0 37.1 16.6 37.1 37.1V475c0 20.5-16.6 37.1-37.1 37.1-13.1-.1-23.8-10.8-23.8-23.9h0z"/></svg>