<svg xmlns="http://www.w3.org/2000/svg" width='37px' height='41' viewBox="0 0 512 511.2"  xmlns:v="https://vecta.io/nano"><linearGradient id="A" gradientUnits="userSpaceOnUse" x1="107.919" y1="329.116" x2="226.214" y2="329.116"><stop offset="0" stop-color="#f9f3f1"/><stop offset=".573" stop-color="#efe2dd"/><stop offset="1" stop-color="#cdbfba"/></linearGradient><path fill="url(#A)" d="M171.7 397.8L115 341l80.5-80.5 56.8 56.8-80.6 80.5z"/><linearGradient id="B" gradientUnits="userSpaceOnUse" x1="33.129" y1="329.115" x2="211.068" y2="329.115"><stop offset="0" stop-color="#f9f3f1"/><stop offset=".573" stop-color="#efe2dd"/><stop offset="1" stop-color="#cdbfba"/></linearGradient><path fill="url(#B)" d="M252.3 317.2l-80.5 80.5L154 380l39.1-39.1c-4.1-3.5-8.1-7.1-12-11a186.12 186.12 0 0 1-24.6-30.4l39-39 56.8 56.7z"/><linearGradient id="C" gradientUnits="userSpaceOnUse" x1="1.004" y1="415.969" x2="206.686" y2="415.969"><stop offset="0" stop-color="#ffe177"/><stop offset=".573" stop-color="#feb137"/><stop offset="1" stop-color="#fe646f"/></linearGradient><path fill="url(#C)" d="M16.6 494.6c-22.2-22.2-22.2-58.1 0-80.3l77-77c22.2-22.2 58.1-22.2 80.3 0s22.2 58.1 0 80.3l-77 77c-22.1 22.2-58.1 22.2-80.3 0z"/><linearGradient id="D" gradientUnits="userSpaceOnUse" x1="-43.168" y1="415.968" x2="197.018" y2="415.968"><stop offset="0" stop-color="#ffe177"/><stop offset=".573" stop-color="#feb137"/><stop offset="1" stop-color="#fe646f"/></linearGradient><path fill="url(#D)" d="M173.9 337.3c-16.3-16.3-40-20.6-60.3-13 7.3 2.8 14.2 7.1 20.1 13 22.2 22.2 22.2 58.1 0 80.3l-77 77c-5.9 5.9-12.8 10.2-20.1 13 20.2 7.6 44 3.3 60.3-13l77-77c22.2-22.1 22.2-58.1 0-80.3h0z"/><linearGradient id="E" gradientUnits="userSpaceOnUse" x1="142.122" y1="184.455" x2="509.521" y2="184.455"><stop offset="0" stop-color="#537983"/><stop offset="1" stop-color="#3e5959"/></linearGradient><circle fill="url(#E)" cx="328.3" cy="184.4" r="183.7"/><linearGradient id="F" gradientUnits="userSpaceOnUse" x1="294.785" y1="184.455" x2="498.573" y2="184.455"><stop offset="0" stop-color="#537983"/><stop offset="1" stop-color="#384949"/></linearGradient><path fill="url(#F)" d="M458.2 54.5c-41-41-96.5-58.5-150-52.7 40.1 4.4 79.1 21.9 109.8 52.7 71.7 71.7 71.7 188.1 0 259.8-30.8 30.8-69.7 48.3-109.8 52.7 53.5 5.8 109-11.7 150-52.7 71.7-71.7 71.7-188 0-259.8h0z"/><linearGradient id="G" gradientUnits="userSpaceOnUse" x1="83.324" y1="184.455" x2="371.464" y2="184.455"><stop offset="0" stop-color="#537983"/><stop offset="1" stop-color="#384949"/></linearGradient><circle fill="url(#G)" cx="303.2" cy="184.4" r="121"/><linearGradient id="H" gradientUnits="userSpaceOnUse" x1="204.796" y1="184.455" x2="403.571" y2="184.455"><stop offset="0" stop-color="#fff"/><stop offset="1" stop-color="#f9f3f1"/></linearGradient><circle fill="url(#H)" cx="328.3" cy="184.4" r="121"/><linearGradient id="I" gradientUnits="userSpaceOnUse" x1="296.151" y1="184.455" x2="432.773" y2="184.455"><stop offset="0" stop-color="#f9f3f1"/><stop offset="1" stop-color="#efe2dd"/></linearGradient><path fill="url(#I)" d="M413.9 98.9C387 72 350.8 60.5 315.7 64.1c26.7 2.8 52.6 14.4 73 34.8 47.3 47.3 47.3 123.9 0 171.1-20.4 20.4-46.4 32-73 34.8 35 3.6 71.3-8 98.1-34.8 47.3-47.2 47.3-123.9.1-171.1z"/></svg>