<svg xmlns="http://www.w3.org/2000/svg" width='42px' height='50' viewBox="9.9 0 492.2 512"><linearGradient id="A" gradientUnits="userSpaceOnUse" x1=".846" y1="245.343" x2="391.077" y2="245.343"><stop offset="0" stop-color="#fe99a0"/><stop offset=".593" stop-color="#fe646f"/><stop offset="1" stop-color="#e41f2d"/></linearGradient><path fill="url(#A)" d="M395.5 405.1c-40.9 40.9-97.3 66.2-159.7 66.2-124.7-.1-225.9-101.2-225.9-226S111.1 19.5 235.8 19.5v225.9l159.7 159.7z"/><linearGradient id="B" gradientUnits="userSpaceOnUse" x1="145.493" y1="245.343" x2="484.288" y2="245.343"><stop offset="0" stop-color="#fe646f"/><stop offset=".704" stop-color="#e41f2d"/><stop offset="1" stop-color="#c41926"/></linearGradient><path fill="url(#B)" d="M230.3 19.5l-2.6.1-2.7.1-3.6.2c-.5 0-1.1.1-1.6.1l-4.3.3c-.3 0-.5 0-.8.1-6.8.6-13.5 1.6-20.1 2.8h0C136.9 33.9 87 66.4 53.6 111.8H105c4.1 0 8 1.6 10.8 4.5l21.7 21.7c9.7 9.7 26.2 2.8 26.2-10.8v-1.8c0-7.5 6.1-13.5 13.5-13.5s13.7-4.7 16.2-11.2v144.8l159.7 159.7c-36.2 36.2-84.6 60.1-138.5 65.2 7 .6 14 1 21.2 1 62.4 0 118.8-25.3 159.7-66.2L235.8 245.3V19.5h-5.5z"/><linearGradient id="C" gradientUnits="userSpaceOnUse" x1="235.793" y1="122.677" x2="481.536" y2="122.677"><stop offset="0" stop-color="#fff9df"/><stop offset=".593" stop-color="#ffe177"/><stop offset="1" stop-color="#feb137"/></linearGradient><path fill="url(#C)" d="M235.8 13.9v231.4h245.7c0-130.8-102.1-237.7-231-245.3-7.9-.4-14.7 5.9-14.7 13.9h0z"/><linearGradient id="D" gradientUnits="userSpaceOnUse" x1="235.793" y1="336.597" x2="502.071" y2="336.597"><stop offset="0" stop-color="#b0e7c9"/><stop offset=".593" stop-color="#46cc8d"/><stop offset="1" stop-color="#0ab69f"/></linearGradient><path fill="url(#D)" d="M235.8 245.3l178.4 178.4c5.7 5.7 14.9 5.4 20.2-.6 39.2-43.8 64.2-100.6 67.6-163.1.4-8-5.9-14.8-13.9-14.8H235.8z"/><linearGradient id="E" gradientUnits="userSpaceOnUse" x1="14.102" y1="60.496" x2="163.672" y2="60.496"><stop offset="0" stop-color="#f2fbff"/><stop offset=".593" stop-color="#faf7f7"/><stop offset="1" stop-color="#f3eae6"/></linearGradient><path fill="url(#E)" d="M27.2 0h128.6a17.31 17.31 0 0 1 17.3 17.3V73a17.31 17.31 0 0 1-17.3 17.3c-7.5 0-13.5 6.1-13.5 13.5v1.8c0 13.7-16.5 20.5-26.2 10.8L94.4 94.8c-2.9-2.9-6.8-4.5-10.8-4.5H27.2A17.31 17.31 0 0 1 9.9 73V17.3A17.31 17.31 0 0 1 27.2 0h0z"/><linearGradient id="F" gradientUnits="userSpaceOnUse" x1="45.15" y1="45.958" x2="266.325" y2="45.958"><stop offset="0" stop-color="#cdbfba"/><stop offset="1" stop-color="#766e6e"/></linearGradient><path fill="url(#F)" d="M139 27.4H44a6.06 6.06 0 0 0-6.1 6.1v24.9a6.06 6.06 0 0 0 6.1 6.1h95a6.06 6.06 0 0 0 6.1-6.1V33.5c.1-3.4-2.7-6.1-6.1-6.1h0z"/><linearGradient id="G" gradientUnits="userSpaceOnUse" x1="308.617" y1="122.677" x2="479.59" y2="122.677"><stop offset="0" stop-color="#ffe177"/><stop offset="1" stop-color="#feb137"/></linearGradient><path fill="url(#G)" d="M250.6 0c-4.1-.2-7.8 1.3-10.5 3.9 113.7 21.6 199.6 121.5 199.6 241.4h41.9C481.5 114.6 379.4 7.7 250.6 0z"/><linearGradient id="H" gradientUnits="userSpaceOnUse" x1="343.124" y1="336.598" x2="518.08" y2="336.598"><stop offset="0" stop-color="#46cc8d"/><stop offset=".548" stop-color="#0ab69f"/><stop offset="1" stop-color="#01998d"/></linearGradient><path fill="url(#H)" d="M488.1 245.3h-41.9c8 0 14.4 6.8 13.9 14.8-3.1 57.2-24.3 109.7-57.9 151.7l12 12c5.7 5.7 14.9 5.4 20.2-.6 39.2-43.8 64.2-100.6 67.6-163.1.5-8-5.8-14.8-13.9-14.8z"/><linearGradient id="I" gradientUnits="userSpaceOnUse" x1="288.164" y1="451.526" x2="437.734" y2="451.526"><stop offset="0" stop-color="#f2fbff"/><stop offset=".593" stop-color="#faf7f7"/><stop offset="1" stop-color="#f3eae6"/></linearGradient><path fill="url(#I)" d="M301.3 512h128.6a17.31 17.31 0 0 0 17.3-17.3V439a17.31 17.31 0 0 0-17.3-17.3c-7.5 0-13.5-6.1-13.5-13.5v-1.8c0-13.7-16.5-20.5-26.2-10.8l-21.7 21.7c-2.9 2.9-6.8 4.5-10.8 4.5h-56.3a17.31 17.31 0 0 0-17.3 17.3v55.7c-.1 9.5 7.6 17.2 17.2 17.2h0z"/><linearGradient id="J" gradientUnits="userSpaceOnUse" x1="319.212" y1="469.511" x2="540.386" y2="469.511"><stop offset="0" stop-color="#cdbfba"/><stop offset="1" stop-color="#766e6e"/></linearGradient><path fill="url(#J)" d="M413.1 450.9H318a6.06 6.06 0 0 0-6.1 6.1v25a6.06 6.06 0 0 0 6.1 6.1h95.1a6.06 6.06 0 0 0 6.1-6.1v-24.9c0-3.4-2.7-6.2-6.1-6.2z"/></svg>