<svg xmlns="http://www.w3.org/2000/svg" viewBox="40.8 90 530.5 612"  fill="#ff8045" xmlns:v="https://vecta.io/nano"><path d="M306 90C159.7 90 40.8 204.2 40.8 344.5 40.8 535 284.2 692 294.5 698.6c3.5 2.2 7.5 3.4 11.5 3.4s8-1.1 11.5-3.4c10.4-6.6 253.7-163.7 253.7-354.1C571.2 204.2 452.3 90 306 90zm0 564.7C258.9 621.9 83.6 490 83.6 344.5c0-116.7 99.7-211.6 222.4-211.6s222.4 94.9 222.4 211.6c0 145.2-175.3 277.3-222.4 310.2zm0-448.2c-66.6 0-120.8 54.2-120.8 120.8S239.4 448.1 306 448.1 426.8 394 426.8 327.4 372.6 206.5 306 206.5zm0 198.8c-43 0-77.9-35-77.9-77.9 0-43 35-77.9 77.9-77.9 43 0 77.9 35 77.9 77.9S349 405.3 306 405.3z"/></svg>